<svg xmlns="http://www.w3.org/2000/svg" viewBox="0 0 960 360" role="img" aria-label="Ballu Lagoon">
  <defs>
    <linearGradient id="body" x1="0" y1="0" x2="0" y2="1"><stop offset="0" stop-color="#ffffff"/><stop offset="1" stop-color="#eef3f6"/></linearGradient>
    <linearGradient id="air" x1="0" y1="0" x2="0" y2="1"><stop offset="0" stop-color="#16a9d4" stop-opacity=".45"/><stop offset="1" stop-color="#16a9d4" stop-opacity="0"/></linearGradient>
    <filter id="shadow" x="-20%" y="-30%" width="140%" height="180%"><feDropShadow dx="0" dy="14" stdDeviation="13" flood-color="#213547" flood-opacity=".16"/></filter>
  </defs>
  <g filter="url(#shadow)">
    <rect x="70" y="64" width="820" height="176" rx="40" fill="url(#body)" stroke="#c8d2da" stroke-width="4"/>
    <path d="M84 191h792c-7 38-23 56-58 56H142c-35 0-51-18-58-56z" fill="#e9eef2" stroke="#c8d2da" stroke-width="4"/>
    <rect x="112" y="191" width="736" height="40" rx="11" fill="#202830"/>
    <g stroke="#71808c" stroke-width="5" opacity=".8">
      <path d="M170 196v28M230 196v28M290 196v28M350 196v28M410 196v28M470 196v28M530 196v28M590 196v28M650 196v28M710 196v28M770 196v28"/>
    </g>
    <text x="480" y="150" text-anchor="middle" font-family="Arial, sans-serif" font-size="42" font-weight="700" fill="#4a535a">Ballu</text>
    <text x="118" y="150" font-family="Arial, sans-serif" font-size="20" font-weight="700" fill="#66737d">LAGOON</text>
    <text x="790" y="150" font-family="Arial, sans-serif" font-size="18" font-weight="700" fill="#66737d">DC INVERTER</text>
    <text x="790" y="105" font-family="Arial, sans-serif" font-size="46" font-weight="700" fill="#159fce">24°</text>
  </g>
  <path d="M180 248h600l-55 82H235z" fill="url(#air)"/>
</svg>
